<svg xmlns="http://www.w3.org/2000/svg" viewBox="0 0 480 320" width="480" height="320" role="img" aria-label="Lift table under a cleanroom ceiling filter, between wall panel joints">
<title>Lift table under a cleanroom ceiling filter, between wall panel joints</title>
<defs><pattern id="hatch" width="9" height="9" patternUnits="userSpaceOnUse" patternTransform="rotate(45)"><line x1="0" y1="0" x2="0" y2="9" stroke="#AAB4BD" stroke-width="2"/></pattern></defs>
<line x1="54" y1="0" x2="54" y2="276" stroke="#AAB4BD" stroke-width="2.5"/><line x1="426" y1="0" x2="426" y2="276" stroke="#AAB4BD" stroke-width="2.5"/><rect x="150" y="34" width="180" height="22" fill="none" stroke="#AAB4BD" stroke-width="2.5"/><line x1="160" y1="37" x2="160" y2="53" stroke="#AAB4BD" stroke-width="1.5"/><line x1="174" y1="37" x2="174" y2="53" stroke="#AAB4BD" stroke-width="1.5"/><line x1="188" y1="37" x2="188" y2="53" stroke="#AAB4BD" stroke-width="1.5"/><line x1="202" y1="37" x2="202" y2="53" stroke="#AAB4BD" stroke-width="1.5"/><line x1="216" y1="37" x2="216" y2="53" stroke="#AAB4BD" stroke-width="1.5"/><line x1="230" y1="37" x2="230" y2="53" stroke="#AAB4BD" stroke-width="1.5"/><line x1="244" y1="37" x2="244" y2="53" stroke="#AAB4BD" stroke-width="1.5"/><line x1="258" y1="37" x2="258" y2="53" stroke="#AAB4BD" stroke-width="1.5"/><line x1="272" y1="37" x2="272" y2="53" stroke="#AAB4BD" stroke-width="1.5"/><line x1="286" y1="37" x2="286" y2="53" stroke="#AAB4BD" stroke-width="1.5"/><line x1="300" y1="37" x2="300" y2="53" stroke="#AAB4BD" stroke-width="1.5"/><line x1="314" y1="37" x2="314" y2="53" stroke="#AAB4BD" stroke-width="1.5"/><line x1="328" y1="37" x2="328" y2="53" stroke="#AAB4BD" stroke-width="1.5"/><line x1="174" y1="0" x2="174" y2="34" stroke="#AAB4BD" stroke-width="1.5"/><line x1="306" y1="0" x2="306" y2="34" stroke="#AAB4BD" stroke-width="1.5"/><rect x="30" y="276" width="420" height="14" fill="url(#hatch)" stroke="none" stroke-width="0"/><line x1="30" y1="276" x2="450" y2="276" stroke="#18212A" stroke-width="3"/><line x1="250.6" y1="218.6" x2="280" y2="194.4" stroke="#18212A" stroke-width="4"/><line x1="210" y1="252" x2="250.6" y2="218.6" stroke="#5C6975" stroke-width="10"/><line x1="148" y1="156" x2="368" y2="252" stroke="#18212A" stroke-width="18"/><line x1="148" y1="156" x2="368" y2="252" stroke="#FFFFFF" stroke-width="12"/><line x1="148" y1="252" x2="368" y2="156" stroke="#18212A" stroke-width="18"/><line x1="148" y1="252" x2="368" y2="156" stroke="#FFFFFF" stroke-width="12"/><rect x="128" y="252" width="224" height="24" fill="#FFFFFF" stroke="#18212A" stroke-width="3"/><rect x="108" y="136" width="264" height="20" fill="#F5B800" stroke="#18212A" stroke-width="3"/><circle cx="148" cy="252" r="6" fill="#FFFFFF" stroke="#18212A" stroke-width="3"/><circle cx="368" cy="252" r="8" fill="#FFFFFF" stroke="#18212A" stroke-width="3"/><circle cx="148" cy="156" r="6" fill="#FFFFFF" stroke="#18212A" stroke-width="3"/><circle cx="368" cy="156" r="8" fill="#FFFFFF" stroke="#18212A" stroke-width="3"/><circle cx="258" cy="204" r="7" fill="#FFFFFF" stroke="#18212A" stroke-width="3"/><path d="M176 78 L304 78 L294 136 L186 136 Z" fill="#FFFFFF" stroke="#5C6975" stroke-width="2.5"/><line x1="172" y1="78" x2="308" y2="78" stroke="#5C6975" stroke-width="3"/>
</svg>
