<svg xmlns="http://www.w3.org/2000/svg" viewBox="0 0 480 320" width="480" height="320" role="img" aria-label="A load shown centred on a lift table platform and again at one end">
<title>A load shown centred on a lift table platform and again at one end</title>
<defs><pattern id="hatch" width="9" height="9" patternUnits="userSpaceOnUse" patternTransform="rotate(45)"><line x1="0" y1="0" x2="0" y2="9" stroke="#AAB4BD" stroke-width="2"/></pattern></defs>
<rect x="30" y="276" width="420" height="14" fill="url(#hatch)" stroke="none" stroke-width="0"/><line x1="30" y1="276" x2="450" y2="276" stroke="#18212A" stroke-width="3"/><line x1="241.3" y1="215.8" x2="269.8" y2="189.6" stroke="#18212A" stroke-width="4"/><line x1="202" y1="252" x2="241.3" y2="215.8" stroke="#5C6975" stroke-width="10"/><line x1="140" y1="148" x2="356.3" y2="252" stroke="#18212A" stroke-width="18"/><line x1="140" y1="148" x2="356.3" y2="252" stroke="#FFFFFF" stroke-width="12"/><line x1="140" y1="252" x2="356.3" y2="148" stroke="#18212A" stroke-width="18"/><line x1="140" y1="252" x2="356.3" y2="148" stroke="#FFFFFF" stroke-width="12"/><rect x="120" y="252" width="240" height="24" fill="#FFFFFF" stroke="#18212A" stroke-width="3"/><rect x="100" y="128" width="280" height="20" fill="#F5B800" stroke="#18212A" stroke-width="3"/><circle cx="140" cy="252" r="6" fill="#FFFFFF" stroke="#18212A" stroke-width="3"/><circle cx="356.3" cy="252" r="8" fill="#FFFFFF" stroke="#18212A" stroke-width="3"/><circle cx="140" cy="148" r="6" fill="#FFFFFF" stroke="#18212A" stroke-width="3"/><circle cx="356.3" cy="148" r="8" fill="#FFFFFF" stroke="#18212A" stroke-width="3"/><circle cx="248.1" cy="200" r="7" fill="#FFFFFF" stroke="#18212A" stroke-width="3"/><rect x="182" y="58" width="116" height="70" fill="none" stroke="#AAB4BD" stroke-width="2.5"/><rect x="268" y="58" width="116" height="70" fill="#FFFFFF" stroke="#5C6975" stroke-width="2.5"/><line x1="268" y1="58" x2="384" y2="128" stroke="#AAB4BD" stroke-width="2"/><line x1="384" y1="58" x2="268" y2="128" stroke="#AAB4BD" stroke-width="2"/><rect x="268" y="58" width="116" height="70" fill="none" stroke="#5C6975" stroke-width="2.5"/><path d="M330 192 A 40 40 0 0 1 370 232" fill="none" stroke="#5C6975" stroke-width="2.5" stroke-dasharray="6 4"/><path d="M363 223 L370 233 L378 225" fill="none" stroke="#5C6975" stroke-width="2.5"/>
</svg>
