<svg xmlns="http://www.w3.org/2000/svg" viewBox="0 0 480 320" width="480" height="320" role="img" aria-label="A lift table platform shown lowered and raised">
<title>A lift table platform shown lowered and raised</title>
<defs><pattern id="hatch" width="9" height="9" patternUnits="userSpaceOnUse" patternTransform="rotate(45)"><line x1="0" y1="0" x2="0" y2="9" stroke="#AAB4BD" stroke-width="2"/></pattern></defs>
<rect x="30" y="276" width="420" height="14" fill="url(#hatch)" stroke="none" stroke-width="0"/><line x1="30" y1="276" x2="450" y2="276" stroke="#18212A" stroke-width="3"/><rect x="170" y="132" width="140" height="74" fill="none" stroke="#AAB4BD" stroke-width="2.5"/><rect x="100" y="206" width="280" height="20" fill="none" stroke="#AAB4BD" stroke-width="2.5"/><line x1="238.4" y1="210.2" x2="264.7" y2="180" stroke="#18212A" stroke-width="4"/><line x1="202" y1="252" x2="238.4" y2="210.2" stroke="#5C6975" stroke-width="10"/><line x1="140" y1="132" x2="347.8" y2="252" stroke="#18212A" stroke-width="18"/><line x1="140" y1="132" x2="347.8" y2="252" stroke="#FFFFFF" stroke-width="12"/><line x1="140" y1="252" x2="347.8" y2="132" stroke="#18212A" stroke-width="18"/><line x1="140" y1="252" x2="347.8" y2="132" stroke="#FFFFFF" stroke-width="12"/><rect x="120" y="252" width="240" height="24" fill="#FFFFFF" stroke="#18212A" stroke-width="3"/><rect x="100" y="112" width="280" height="20" fill="#F5B800" stroke="#18212A" stroke-width="3"/><circle cx="140" cy="252" r="6" fill="#FFFFFF" stroke="#18212A" stroke-width="3"/><circle cx="347.8" cy="252" r="8" fill="#FFFFFF" stroke="#18212A" stroke-width="3"/><circle cx="140" cy="132" r="6" fill="#FFFFFF" stroke="#18212A" stroke-width="3"/><circle cx="347.8" cy="132" r="8" fill="#FFFFFF" stroke="#18212A" stroke-width="3"/><circle cx="243.9" cy="192" r="7" fill="#FFFFFF" stroke="#18212A" stroke-width="3"/><rect x="170" y="38" width="140" height="74" fill="#FFFFFF" stroke="#5C6975" stroke-width="2.5"/><line x1="170" y1="38" x2="310" y2="112" stroke="#AAB4BD" stroke-width="2"/><line x1="310" y1="38" x2="170" y2="112" stroke="#AAB4BD" stroke-width="2"/><rect x="170" y="38" width="140" height="74" fill="none" stroke="#5C6975" stroke-width="2.5"/><line x1="424" y1="206" x2="424" y2="112" stroke="#5C6975" stroke-width="1.5"/><line x1="415" y1="206" x2="433" y2="206" stroke="#5C6975" stroke-width="1.5"/><line x1="415" y1="112" x2="433" y2="112" stroke="#5C6975" stroke-width="1.5"/>
</svg>
