<svg xmlns="http://www.w3.org/2000/svg" viewBox="0 0 480 320" width="480" height="320" role="img" aria-label="Mobile lift table on casters with a push handle">
<title>Mobile lift table on casters with a push handle</title>
<defs><pattern id="hatch" width="9" height="9" patternUnits="userSpaceOnUse" patternTransform="rotate(45)"><line x1="0" y1="0" x2="0" y2="9" stroke="#AAB4BD" stroke-width="2"/></pattern></defs>
<rect x="30" y="276" width="420" height="14" fill="url(#hatch)" stroke="none" stroke-width="0"/><line x1="30" y1="276" x2="450" y2="276" stroke="#18212A" stroke-width="3"/><rect x="143" y="242" width="14" height="22" fill="#FFFFFF" stroke="#18212A" stroke-width="2.5"/><circle cx="150" cy="264" r="11" fill="#FFFFFF" stroke="#18212A" stroke-width="3"/><circle cx="150" cy="264" r="3" fill="#18212A" stroke="#18212A" stroke-width="0"/><rect x="329" y="242" width="14" height="22" fill="#FFFFFF" stroke="#18212A" stroke-width="2.5"/><circle cx="336" cy="264" r="11" fill="#FFFFFF" stroke="#18212A" stroke-width="3"/><circle cx="336" cy="264" r="3" fill="#18212A" stroke="#18212A" stroke-width="0"/><line x1="116" y1="218" x2="116" y2="86" stroke="#18212A" stroke-width="6"/><path d="M116 88 L116 76 L90 68" fill="none" stroke="#18212A" stroke-width="6"/><line x1="255.8" y1="186" x2="274.6" y2="162.8" stroke="#18212A" stroke-width="4"/><line x1="230" y1="218" x2="255.8" y2="186" stroke="#5C6975" stroke-width="10"/><line x1="168" y1="126" x2="345.6" y2="218" stroke="#18212A" stroke-width="18"/><line x1="168" y1="126" x2="345.6" y2="218" stroke="#FFFFFF" stroke-width="12"/><line x1="168" y1="218" x2="345.6" y2="126" stroke="#18212A" stroke-width="18"/><line x1="168" y1="218" x2="345.6" y2="126" stroke="#FFFFFF" stroke-width="12"/><rect x="108" y="218" width="250" height="24" fill="#FFFFFF" stroke="#18212A" stroke-width="3"/><rect x="138" y="106" width="232" height="20" fill="#F5B800" stroke="#18212A" stroke-width="3"/><circle cx="168" cy="218" r="6" fill="#FFFFFF" stroke="#18212A" stroke-width="3"/><circle cx="345.6" cy="218" r="8" fill="#FFFFFF" stroke="#18212A" stroke-width="3"/><circle cx="168" cy="126" r="6" fill="#FFFFFF" stroke="#18212A" stroke-width="3"/><circle cx="345.6" cy="126" r="8" fill="#FFFFFF" stroke="#18212A" stroke-width="3"/><circle cx="256.8" cy="172" r="7" fill="#FFFFFF" stroke="#18212A" stroke-width="3"/><line x1="410" y1="276" x2="410" y2="106" stroke="#5C6975" stroke-width="1.5"/><line x1="401" y1="276" x2="419" y2="276" stroke="#5C6975" stroke-width="1.5"/><line x1="401" y1="106" x2="419" y2="106" stroke="#5C6975" stroke-width="1.5"/>
</svg>
